<svg width="84" height="85" viewBox="0 0 84 85" fill="none" xmlns="http://www.w3.org/2000/svg">
<path d="M13.9296 61.1807L65.3344 83.8089C65.8432 84.0338 66.3916 84.1555 66.9478 84.1671C67.504 84.1786 68.057 84.0798 68.5748 83.8763C69.0921 83.6718 69.5638 83.3668 69.9625 82.9789C70.3613 82.591 70.6791 82.1279 70.8978 81.6164L83.5228 52.158C83.9624 51.1323 83.9766 49.974 83.5623 48.9378C83.148 47.9016 82.339 47.0723 81.3134 46.6325L52.036 34.0875L57.2544 21.0416H75.447V33.6666H83.8636V-3.35376e-05H75.447V12.625H57.2544C53.7909 12.625 50.723 14.7039 49.4437 17.919L44.3011 30.7713L29.9128 24.6061C28.8917 24.1673 27.7385 24.1502 26.7048 24.5586C25.6712 24.9671 24.8411 25.7678 24.3957 26.786L11.7707 55.6426C11.324 56.6634 11.3004 57.8198 11.7051 58.858C12.1099 59.8962 12.9098 60.7315 13.9296 61.1807ZM8.40823 23.6845L16.2273 26.807L7.81906 47.8487L-2.02541e-05 44.7303L8.40823 23.6845Z" fill="white"/>
</svg>
