<svg width="17" height="17" viewBox="0 0 17 17" fill="none" xmlns="http://www.w3.org/2000/svg">
<path d="M8.96709 2.50005L15.3178 13.5001C15.3763 13.6014 15.4071 13.7164 15.4071 13.8334C15.4071 13.9504 15.3763 14.0654 15.3178 14.1667C15.2592 14.2681 15.1751 14.3522 15.0737 14.4107C14.9724 14.4692 14.8574 14.5 14.7404 14.5001H2.03909C1.92206 14.5 1.8071 14.4692 1.70576 14.4107C1.60442 14.3522 1.52026 14.2681 1.46175 14.1667C1.40324 14.0654 1.37244 13.9504 1.37244 13.8334C1.37244 13.7164 1.40324 13.6014 1.46175 13.5001L7.81242 2.50005C7.87093 2.39871 7.95509 2.31456 8.05643 2.25606C8.15778 2.19755 8.27273 2.16675 8.38975 2.16675C8.50677 2.16675 8.62173 2.19755 8.72307 2.25606C8.82441 2.31456 8.90857 2.39871 8.96709 2.50005ZM7.72309 11.1667V12.5001H9.05642V11.1667H7.72309ZM7.72309 6.50005V9.83339H9.05642V6.50005H7.72309Z" fill="white"/>
</svg>
