<svg width="17" height="17" viewBox="0 0 17 17" fill="none" xmlns="http://www.w3.org/2000/svg">
<path d="M11.0564 11.8334V13.1668H1.72308V11.8334C1.72308 11.8334 1.72308 9.16677 6.38975 9.16677C11.0564 9.16677 11.0564 11.8334 11.0564 11.8334ZM8.72308 5.50011C8.72308 5.03862 8.58624 4.58749 8.32985 4.20378C8.07346 3.82006 7.70904 3.52099 7.28268 3.34439C6.85632 3.16778 6.38716 3.12157 5.93454 3.21161C5.48192 3.30164 5.06616 3.52387 4.73983 3.85019C4.41351 4.17651 4.19128 4.59227 4.10125 5.0449C4.01122 5.49752 4.05743 5.96667 4.23403 6.39303C4.41064 6.81939 4.70971 7.18381 5.09342 7.4402C5.47713 7.69659 5.92826 7.83344 6.38975 7.83344C7.00859 7.83344 7.60208 7.58761 8.03967 7.15002C8.47725 6.71244 8.72308 6.11894 8.72308 5.50011ZM11.0164 9.16677C11.4262 9.48394 11.7616 9.88706 11.9989 10.3478C12.2361 10.8085 12.3696 11.3156 12.3898 11.8334V13.1668H15.0564V11.8334C15.0564 11.8334 15.0564 9.41344 11.0164 9.16677ZM10.3898 3.16677C9.93094 3.16464 9.48228 3.30179 9.10308 3.56011C9.50804 4.12593 9.72579 4.8043 9.72579 5.50011C9.72579 6.19592 9.50804 6.87428 9.10308 7.44011C9.48228 7.69842 9.93094 7.83557 10.3898 7.83344C11.0086 7.83344 11.6021 7.58761 12.0397 7.15002C12.4773 6.71244 12.7231 6.11894 12.7231 5.50011C12.7231 4.88127 12.4773 4.28778 12.0397 3.85019C11.6021 3.41261 11.0086 3.16677 10.3898 3.16677Z" fill="white"/>
</svg>
